<svg width="49" height="19" viewBox="0 0 49 19" fill="none" xmlns="http://www.w3.org/2000/svg">
<g clip-path="url(#clip0_8103_5506)">
<path d="M29.1576 0.535949C31.593 0.510018 35.853 3.49642 35.853 3.49642C35.853 3.49642 35.4163 5.60549 32.9439 7.04035C30.4715 8.47521 13.7275 6.72485 13.7275 6.72485C13.7275 6.72485 16.9179 3.9459 19.5383 1.89301C22.1588 -0.15987 26.7186 0.56188 29.1576 0.531627V0.535949Z" fill="white"/>
<path d="M9.98563 7.8658C15.3745 7.85716 15.0451 15.0963 15.0451 15.0963C15.0451 15.0963 30.0015 14.3572 31.1007 12.823C32.1999 11.2887 33.2363 7.36014 37.2261 7.5287C41.216 7.69725 41.9525 11.5394 42.6113 11.6301C43.1072 11.6993 46.6085 11.4616 48.3296 11.3406C48.3222 12.3044 46.8639 15.1697 46.8639 15.1697C46.8639 15.1697 43.9548 15.7013 41.1937 16.0341C41.4713 15.3599 41.6305 14.6079 41.6305 13.8084C41.6305 10.9689 39.6578 8.66534 37.2261 8.66534C34.7944 8.66534 32.8217 10.9689 32.8217 13.8084C32.8217 14.7505 33.0438 15.6322 33.4213 16.3885C27.7401 16.449 19.2052 16.4447 13.5683 16.3755C13.9422 15.6192 14.1605 14.7419 14.1605 13.804C14.1605 10.9646 12.1878 8.66102 9.75616 8.66102C7.3245 8.66102 5.35179 10.9646 5.35179 13.804C5.35179 14.6554 5.53314 15.455 5.84404 16.1595C3.28655 16.086 0.210888 16.0341 0.210888 16.0341C0.210888 16.0341 0.155371 15.6927 0.0998535 15.1654L4.62636 15.1784C4.62636 15.1784 3.96015 7.87012 9.97823 7.85716L9.98563 7.8658Z" fill="#D12C24"/>
<path d="M9.76346 8.66553C12.1951 8.66553 14.1678 10.9691 14.1678 13.8085C14.1678 14.7464 13.9495 15.6237 13.5756 16.38C11.2476 16.3498 9.41185 16.3109 8.48286 16.2634C7.85367 16.2288 6.89877 16.1985 5.85505 16.1683C5.54045 15.4595 5.36279 14.6599 5.36279 13.8129C5.36279 10.9734 7.33551 8.66985 9.76716 8.66985L9.76346 8.66553Z" fill="#BA1A1A"/>
<path d="M37.2298 8.66553C39.6614 8.66553 41.6341 10.9691 41.6341 13.8085C41.6341 14.6081 41.475 15.3601 41.1974 16.0343C40.3943 16.1337 39.6059 16.2158 38.9027 16.2634C38.0625 16.3195 36.0491 16.3628 33.4287 16.393C33.0512 15.6324 32.8291 14.755 32.8291 13.8129C32.8291 10.9734 34.8018 8.66985 37.2335 8.66985L37.2298 8.66553Z" fill="#BA1A1A"/>
<path d="M0.0813106 11.8034C-0.0704366 12.9703 0.018391 14.3187 0.107219 15.1701L4.63373 15.183C4.63373 15.183 3.96752 7.87478 9.98559 7.86182C15.3745 7.85317 15.0451 15.0923 15.0451 15.0923C15.0451 15.0923 30.0014 14.3533 31.1007 12.819C32.1999 11.2847 33.2362 7.35616 37.2261 7.52471C41.2159 7.69326 41.9524 11.5354 42.6112 11.6262C43.1072 11.6953 46.6085 11.4576 48.3295 11.3366C48.3443 9.72022 46.7158 5.85647 46.7158 5.85647C46.7158 5.85647 40.8014 4.72847 35.5013 2.04027C33.4028 0.977094 30.849 0.173228 28.2804 0.0349281C25.3565 -0.124981 22.7509 0.324493 19.8862 1.15861C16.8549 2.04459 12.3284 5.8608 12.3284 5.8608C12.3284 5.8608 3.61961 7.6414 1.6432 8.74348C1.05841 9.06762 0.288575 10.2129 0.0813106 11.8077V11.8034ZM14.823 6.2368C14.823 6.2368 17.1473 3.24607 19.8381 2.27365C21.6294 1.62969 25.7414 0.722104 29.0169 1.15429C29.4722 1.2148 29.9163 1.30123 30.3308 1.41792C33.4842 2.3039 35.7271 3.5875 35.7271 3.5875C35.7271 3.5875 34.8425 5.51937 32.4257 5.8608C31.7965 5.95156 30.3049 6.01638 28.4395 6.06825C27.9732 6.08121 27.4809 6.09418 26.9776 6.10282C23.0766 6.18926 18.2503 6.21951 16.037 6.22815C15.2782 6.22815 14.8304 6.23248 14.8304 6.23248L14.823 6.2368Z" fill="#DC4437"/>
<path d="M14.8231 6.23659C14.8231 6.23659 15.2746 6.23659 16.0297 6.23227C16.7181 5.38951 18.6353 3.27612 20.9115 2.73156C23.7725 2.04871 27.2886 2.13082 27.2886 2.13082L26.9703 6.10694C27.4773 6.09397 27.9659 6.08533 28.4322 6.07236C30.2976 6.0205 31.7892 5.95135 32.4183 5.86491C34.8352 5.52349 35.7198 3.59161 35.7198 3.59161C35.7198 3.59161 33.4769 2.30802 30.3235 1.42204C29.909 1.30535 29.4685 1.21891 29.0096 1.15841C25.7341 0.72622 21.6221 1.63381 19.8307 2.27777C17.1437 3.25019 14.8157 6.24091 14.8157 6.24091L14.8231 6.23659ZM28.2434 4.80606C28.2434 4.10159 28.3434 2.84393 28.4988 2.38581C28.5766 2.15676 28.6247 2.00981 29.4167 2.066C30.5715 2.14811 32.992 2.9563 33.5879 3.2718C34.1838 3.58729 34.4614 4.26582 33.7508 4.69801C32.6811 5.35061 30.1273 5.329 29.5833 5.34197C28.906 5.35493 28.2472 5.42408 28.2434 4.80606Z" fill="#CCCCCC"/>
<path d="M1.70622 9.5902C2.36132 9.02836 3.60861 8.78201 4.8559 8.66532C5.65535 8.59185 5.34815 9.31792 5.02615 9.84519C4.84479 10.1391 4.78187 10.3725 4.19339 10.3984C3.41245 10.4286 1.06592 10.5626 1.06592 10.5626C1.06592 10.5626 1.49155 9.77172 1.70252 9.5902H1.70622Z" fill="#FBCB43"/>
<path d="M15.0709 6.23637L14.9747 9.58149C14.9747 11.4572 15.1191 12.1962 15.5484 12.9612C15.7075 13.2421 16.1295 13.9811 17.5729 13.8645C19.9343 13.67 25.4157 13.1902 26.3298 13.0563C27.418 12.892 27.4291 12.6154 27.4698 11.5825C27.4735 11.4529 27.4809 11.3102 27.4883 11.1546C27.5623 9.79326 27.5327 6.13265 27.5327 6.09375H27.8066C27.8066 6.124 27.7992 9.90563 27.7289 11.2713C27.7215 11.4269 27.7141 11.5652 27.7104 11.6992C27.6697 12.7581 27.5623 13.0433 26.3521 13.2248C25.4342 13.3631 19.9491 13.8385 17.5877 14.033C17.4804 14.0417 17.3768 14.046 17.2805 14.046C15.9925 14.046 15.5743 13.3069 15.43 13.0519C14.9932 12.2783 14.7563 11.4961 14.7563 9.59014L14.8304 6.23637H15.0783H15.0709Z" fill="#D12C24"/>
<path d="M32.9365 7.37305C32.8255 7.54592 32.6256 7.81388 32.6256 7.81388C32.6256 7.81388 23.4282 8.19852 21.2186 8.24606C19.7012 8.27632 15.3671 8.45351 13.4573 8.41894C13.0058 8.37572 12.6653 8.18556 12.6653 8.18556C12.6653 8.18556 18.4058 7.93921 20.7486 7.7793C23.4615 7.59346 31.0526 7.4033 32.9365 7.37305Z" fill="#D12C24"/>
<path d="M24.5459 6.8374H26.3594C26.5371 6.8374 26.6814 7.00596 26.6814 7.2134C26.6814 7.42085 26.5371 7.58941 26.3594 7.58941H24.5459C24.3682 7.58941 24.2239 7.42085 24.2239 7.2134C24.2239 7.00596 24.3682 6.8374 24.5459 6.8374Z" fill="#CCCCCC"/>
<path d="M18.4613 2.84799C20.508 1.78049 23.1247 1.27916 24.3461 1.15382C25.7229 1.0112 28.5839 0.717315 30.6825 1.43042C32.7292 2.12624 35.8197 3.47898 35.8493 3.49195L35.9492 3.53949L35.8752 3.63025C35.8197 3.69508 34.8315 5.19908 33.6582 5.70474C32.8217 6.06346 31.2747 6.04617 31.2043 6.04617V5.95973C31.2228 5.95973 32.744 5.79118 33.5583 5.4584C34.2578 5.17315 35.3237 4.01057 35.6087 3.66482C35.0498 3.40551 32.4738 2.217 30.6418 1.59465C28.5691 0.890189 25.7266 1.18408 24.3609 1.32238C23.1469 1.44771 20.5746 2.00955 18.5464 3.06841C16.6773 4.04515 15.145 6.13693 15.0673 6.23201H14.8193C14.8378 6.2104 16.5589 3.8377 18.4576 2.84799H18.4613Z" fill="#D12C24"/>
<path d="M46.7715 7.21739H44.1326L46.4273 6.23633L46.7715 7.21739Z" fill="white"/>
<path d="M42.5669 7.42931C43.1036 7.45091 43.6662 8.17699 44.0104 8.56595C44.3509 8.95492 45.3798 10.0613 44.9394 10.2039C44.4989 10.3466 43.618 10.4027 43.0814 10.2039C42.5447 10.0051 41.7527 8.49248 41.5158 8.03869C41.042 7.13974 42.0302 7.40337 42.5706 7.42498L42.5669 7.42931Z" fill="#D12C24"/>
<path d="M2.05012 12.7927C2.58308 12.7754 2.98281 13.8299 2.05012 14.1584C1.11743 14.4869 0.0440916 14.4134 0.0440916 14.4134L0.00708008 12.797C0.00708008 12.797 1.51715 12.8186 2.05012 12.797V12.7927Z" fill="#D12C24"/>
<path d="M9.85231 16.5267C11.042 16.5267 12.0064 15.4006 12.0064 14.0114C12.0064 12.6222 11.042 11.4961 9.85231 11.4961C8.66265 11.4961 7.69824 12.6222 7.69824 14.0114C7.69824 15.4006 8.66265 16.5267 9.85231 16.5267Z" fill="white"/>
<path d="M6.09204 13.9637C6.09204 16.3753 7.76496 18.3288 9.8302 18.3288C11.8954 18.3288 13.5684 16.3753 13.5684 13.9637C13.5684 11.5521 11.8954 9.59863 9.8302 9.59863C7.76496 9.59863 6.09204 11.5521 6.09204 13.9637ZM7.10246 13.9637C7.10246 12.2047 8.32384 10.7742 9.83391 10.7742C11.344 10.7742 12.5654 12.2004 12.5654 13.9637C12.5654 15.727 11.344 17.1532 9.83391 17.1532C8.32384 17.1532 7.10246 15.727 7.10246 13.9637Z" fill="#444444"/>
<path d="M7.10254 13.9639C7.10254 15.7229 8.32392 17.1535 9.83399 17.1535C11.3441 17.1535 12.5654 15.7273 12.5654 13.9639C12.5654 12.2006 11.3441 10.7744 9.83399 10.7744C8.32392 10.7744 7.10254 12.2006 7.10254 13.9639ZM7.72063 13.9639C7.72063 12.6026 8.66813 11.4962 9.83399 11.4962C10.9999 11.4962 11.9473 12.6026 11.9473 13.9639C11.9473 15.3253 10.9999 16.4317 9.83399 16.4317C8.66813 16.4317 7.72063 15.3253 7.72063 13.9639Z" fill="#515151"/>
<path d="M7.5354 13.9637C7.5354 15.4461 8.56432 16.6475 9.83381 16.6475C11.1033 16.6475 12.1322 15.4461 12.1322 13.9637C12.1322 12.4813 11.1033 11.2798 9.83381 11.2798C8.56432 11.2798 7.5354 12.4813 7.5354 13.9637ZM11.7769 14.5039C11.5141 14.3742 11.0256 14.0717 10.8331 13.5488C10.7443 13.0215 10.9997 12.5072 11.1551 12.2133C11.5882 12.6412 11.8324 13.2506 11.8324 13.9637C11.8324 14.1495 11.8102 14.331 11.7769 14.5039ZM10.2965 14.9188C10.6888 14.5514 11.3513 14.7589 11.6733 14.8669C11.3994 15.6708 10.7739 16.211 10.0115 16.2888C9.99296 15.9474 10.0078 15.338 10.2965 14.9188ZM9.83381 12.8184C9.32306 12.7535 8.95294 12.222 8.78639 11.9799C9.10099 11.7422 9.43409 11.6299 9.83381 11.6299C10.2335 11.6299 10.6074 11.7682 10.922 12.0059C10.7517 12.2479 10.3446 12.7535 9.83381 12.8184ZM7.99064 14.8756C8.29784 14.7675 9.00106 14.5385 9.40818 14.9231C9.70057 15.3423 9.71538 15.9517 9.69317 16.2931C8.91223 16.2283 8.27193 15.6838 7.99064 14.8756ZM7.83149 13.9637C7.83149 13.2333 8.07947 12.6196 8.52731 12.1917C8.68276 12.4769 8.96404 12.9999 8.87152 13.5488C8.66795 14.0976 8.13869 14.4045 7.89071 14.5212C7.8537 14.344 7.83149 14.1538 7.83149 13.9637Z" fill="#CCCCCC"/>
<path d="M9.83381 13.4668C10.0522 13.4668 10.2335 13.6742 10.2335 13.9336C10.2335 14.1929 10.0559 14.4003 9.83381 14.4003C9.61174 14.4003 9.43408 14.1929 9.43408 13.9336C9.43408 13.6742 9.61174 13.4668 9.83381 13.4668Z" fill="#5B5B5B"/>
<path d="M9.83394 13.7217C9.93388 13.7217 10.0153 13.8168 10.0153 13.9335C10.0153 14.0501 9.93388 14.1452 9.83394 14.1452C9.73401 14.1452 9.65259 14.0501 9.65259 13.9335C9.65259 13.8168 9.73401 13.7217 9.83394 13.7217Z" fill="#CCCCCC"/>
<path d="M37.23 16.5267C38.4197 16.5267 39.3841 15.4006 39.3841 14.0114C39.3841 12.6222 38.4197 11.4961 37.23 11.4961C36.0403 11.4961 35.0759 12.6222 35.0759 14.0114C35.0759 15.4006 36.0403 16.5267 37.23 16.5267Z" fill="white"/>
<path d="M33.5103 13.9637C33.5103 16.3753 35.1832 18.3288 37.2484 18.3288C39.3137 18.3288 40.9866 16.3753 40.9866 13.9637C40.9866 11.5521 39.3137 9.59863 37.2484 9.59863C35.1832 9.59863 33.5103 11.5521 33.5103 13.9637ZM34.5207 13.9637C34.5207 12.2047 35.742 10.7742 37.2521 10.7742C38.7622 10.7742 39.9836 12.2004 39.9836 13.9637C39.9836 15.727 38.7622 17.1532 37.2521 17.1532C35.742 17.1532 34.5207 15.727 34.5207 13.9637Z" fill="#444444"/>
<path d="M34.5208 13.9639C34.5208 15.7229 35.7421 17.1535 37.2522 17.1535C38.7623 17.1535 39.9837 15.7273 39.9837 13.9639C39.9837 12.2006 38.7623 10.7744 37.2522 10.7744C35.7421 10.7744 34.5208 12.2006 34.5208 13.9639ZM35.1388 13.9639C35.1388 12.6026 36.0863 11.4962 37.2522 11.4962C38.4181 11.4962 39.3656 12.6026 39.3656 13.9639C39.3656 15.3253 38.4181 16.4317 37.2522 16.4317C36.0863 16.4317 35.1388 15.3253 35.1388 13.9639Z" fill="#515151"/>
<path d="M34.9536 13.9637C34.9536 15.4461 35.9825 16.6475 37.252 16.6475C38.5215 16.6475 39.5504 15.4461 39.5504 13.9637C39.5504 12.4813 38.5215 11.2798 37.252 11.2798C35.9825 11.2798 34.9536 12.4813 34.9536 13.9637ZM39.1951 14.5039C38.9323 14.3742 38.4438 14.0717 38.2513 13.5488C38.1625 13.0215 38.4179 12.5072 38.5733 12.2133C39.0064 12.6412 39.2506 13.2506 39.2506 13.9637C39.2506 14.1495 39.2284 14.331 39.1951 14.5039ZM37.7147 14.9188C38.107 14.5514 38.7695 14.7589 39.0915 14.8669C38.8176 15.6708 38.1921 16.211 37.4297 16.2888C37.4112 15.9474 37.426 15.338 37.7147 14.9188ZM37.252 12.8184C36.7413 12.7535 36.3712 12.222 36.2046 11.9799C36.5192 11.7422 36.8523 11.6299 37.252 11.6299C37.6518 11.6299 38.0256 11.7682 38.3402 12.0059C38.1699 12.2479 37.7628 12.7535 37.252 12.8184ZM35.4089 14.8756C35.716 14.7675 36.4193 14.5385 36.8264 14.9231C37.1188 15.3423 37.1336 15.9517 37.1114 16.2931C36.3304 16.2283 35.6901 15.6838 35.4089 14.8756ZM35.2497 13.9637C35.2497 13.2333 35.4977 12.6196 35.9455 12.1917C36.101 12.4769 36.3823 12.9999 36.2897 13.5488C36.0862 14.0976 35.5569 14.4045 35.3089 14.5212C35.2719 14.344 35.2497 14.1538 35.2497 13.9637Z" fill="#CCCCCC"/>
<path d="M37.252 13.4668C37.4704 13.4668 37.6517 13.6742 37.6517 13.9336C37.6517 14.1929 37.4741 14.4003 37.252 14.4003C37.03 14.4003 36.8523 14.1929 36.8523 13.9336C36.8523 13.6742 37.03 13.4668 37.252 13.4668Z" fill="#5B5B5B"/>
<path d="M37.2522 13.7217C37.3521 13.7217 37.4335 13.8168 37.4335 13.9335C37.4335 14.0501 37.3521 14.1452 37.2522 14.1452C37.1522 14.1452 37.0708 14.0501 37.0708 13.9335C37.0708 13.8168 37.1522 13.7217 37.2522 13.7217Z" fill="#CCCCCC"/>
</g>
<defs>
<clipPath id="clip0_8103_5506">
<rect width="48.3333" height="18.3333" fill="white"/>
</clipPath>
</defs>
</svg>
